<svg width="19" height="19" viewBox="0 0 19 19" fill="none" xmlns="http://www.w3.org/2000/svg">
<path d="M0.834961 0.5H1.7793C3.25399 0.500187 4.51533 1.59181 4.74805 3.08008L4.81445 3.50293H16.6045C17.5262 3.503 18.2819 4.32187 18.1953 5.32324C18.0325 7.20464 17.5859 8.81066 17.1611 9.92871C16.7985 10.8834 16.0306 11.5655 15.0908 11.7666C14.2226 11.9523 12.9182 12.1357 11.1572 12.1357C9.91801 12.1357 8.86677 12.045 8.02441 11.9268C7.53108 11.8574 7.09173 11.6805 6.70996 11.4238L5.78809 10.8037L5.93555 11.9053L6.0918 13.0635C6.2487 14.23 7.23253 15.1104 8.40723 15.1104H15.4795L15.4971 15.1094C15.5352 15.1067 15.574 15.1055 15.6133 15.1055C16.5242 15.1055 17.2764 15.8577 17.2764 16.8027C17.2763 17.7475 16.5242 18.4999 15.6133 18.5C14.7023 18.5 13.9502 17.7476 13.9502 16.8027C13.9502 16.6697 13.9652 16.5404 13.9932 16.417L14.1309 15.8066H8.21582L8.35449 16.418C8.38239 16.5411 8.39746 16.6699 8.39746 16.8027C8.39742 17.7475 7.6453 18.4999 6.73438 18.5C5.82336 18.5 5.07133 17.7476 5.07129 16.8027C5.07129 16.1799 5.39928 15.6381 5.88574 15.3428L6.35938 15.0547L6.02441 14.6133C5.7136 14.2027 5.50229 13.7071 5.42871 13.1602L4.09473 3.24316C3.93782 2.07674 2.95384 1.19648 1.7793 1.19629H0.834961C0.657523 1.19629 0.50022 1.04821 0.5 0.848633C0.5 0.648848 0.657399 0.5 0.834961 0.5ZM5.13867 4.77246L5.67969 8.43457C5.89838 9.91342 6.84311 11.0578 8.11426 11.2363C8.92855 11.3507 9.94959 11.4395 11.1572 11.4395C12.8732 11.4395 14.1325 11.2602 14.9561 11.084C15.6663 10.932 16.2554 10.4177 16.5381 9.67383C16.9428 8.60859 17.372 7.06692 17.5283 5.26074C17.5793 4.66952 17.1351 4.19929 16.6045 4.19922H5.05371L5.13867 4.77246Z" fill="black" stroke="black"/>
</svg>
