<svg width="18" height="20" viewBox="0 0 18 20" fill="none" xmlns="http://www.w3.org/2000/svg">
<path d="M8.73071 0.149597L9.15259 0.162292C11.251 0.280933 13.2377 1.21845 14.7209 2.79803H14.72C16.3062 4.4786 17.1923 6.75361 17.1838 9.12128V15.9074C17.1837 17.8564 15.6831 19.4504 13.8157 19.4504H9.31079C9.02332 19.4504 8.76129 19.288 8.62134 19.0324C8.32566 18.4919 8.68837 17.7932 9.31079 17.7932H13.8157C14.7448 17.7931 15.5168 17.0345 15.5891 16.0568H13.8157C12.6591 16.0569 11.7346 15.0709 11.7346 13.8713V10.4787C11.7346 9.27912 12.6591 8.29311 13.8157 8.29315H15.552C15.3819 6.65604 14.6912 5.12711 13.5891 3.95917C13.3088 3.66245 13.005 3.39138 12.6809 3.1496C8.37248 -0.0647406 2.3776 2.77488 1.78247 8.29315H3.51782C4.67435 8.29321 5.59888 9.27917 5.59888 10.4787V13.8713C5.59888 15.0708 4.67435 16.0568 3.51782 16.0568H2.23071C1.07416 16.0568 0.149658 15.0708 0.149658 13.8713V9.12128C0.14973 4.17414 3.95618 0.149597 8.66724 0.149597H8.73071ZM1.73755 13.8713C1.73755 14.1707 1.96554 14.3995 2.23071 14.3996H3.51782C3.78305 14.3996 4.01196 14.1708 4.01196 13.8713V10.4787C4.01196 10.1792 3.78305 9.95038 3.51782 9.95038H1.73755V13.8713ZM13.8157 9.95038C13.5504 9.95037 13.3225 10.1792 13.3225 10.4787V13.8713C13.3225 14.1708 13.5504 14.3996 13.8157 14.3996H15.5969V9.95038H13.8157Z" fill="black" stroke="black" stroke-width="0.3"/>
</svg>
