<svg width="16" height="21" viewBox="0 0 16 21" fill="none" xmlns="http://www.w3.org/2000/svg">
<path d="M7.60352 11.042C9.42329 11.042 11.1936 11.4604 12.5234 12.2324C13.8456 13 14.7059 14.1119 14.7061 15.375C14.7059 16.6382 13.8457 17.751 12.5234 18.5186C11.1936 19.2905 9.42317 19.7089 7.60352 19.709C5.78372 19.709 4.01251 19.2905 2.68262 18.5186C1.36051 17.751 0.500166 16.6381 0.5 15.375C0.500148 14.112 1.36064 13 2.68262 12.2324C4.01254 11.4604 5.78363 11.042 7.60352 11.042ZM7.60352 12.042C5.92109 12.042 4.33229 12.4311 3.18555 13.0967C2.03144 13.7667 1.50015 14.6051 1.5 15.375C1.50017 16.1449 2.03138 16.9833 3.18555 17.6533C4.33229 18.3189 5.92105 18.709 7.60352 18.709C9.28604 18.7089 10.8748 18.319 12.0215 17.6533C13.1756 16.9833 13.7059 16.1449 13.7061 15.375C13.7059 14.6051 13.1755 13.7667 12.0215 13.0967C10.8748 12.431 9.28601 12.042 7.60352 12.042ZM7.60352 0.5C8.73938 0.50004 9.8272 0.958987 10.6279 1.77246C11.4281 2.58559 11.8769 3.68654 11.877 4.83301C11.8769 5.97965 11.4283 7.08133 10.6279 7.89453C9.8272 8.70797 8.73935 9.16695 7.60352 9.16699C6.46764 9.16699 5.37986 8.70799 4.5791 7.89453C3.77863 7.08132 3.33011 5.97971 3.33008 4.83301C3.33016 3.68647 3.7788 2.58561 4.5791 1.77246C5.37987 0.958951 6.4676 0.5 7.60352 0.5ZM7.60352 1.5C6.73802 1.5 5.90647 1.84945 5.29199 2.47363C4.67735 3.09809 4.33016 3.94658 4.33008 4.83301C4.33011 5.71954 4.67727 6.56885 5.29199 7.19336C5.90645 7.8174 6.73813 8.16699 7.60352 8.16699C8.46892 8.16695 9.30061 7.81745 9.91504 7.19336C10.5298 6.56885 10.8769 5.71954 10.877 4.83301C10.8769 3.94658 10.5297 3.09809 9.91504 2.47363C9.30058 1.8494 8.46902 1.50004 7.60352 1.5Z" fill="black"/>
<path d="M7.60352 11.042L7.60353 10.542H7.60352V11.042ZM12.5234 12.2324L12.7745 11.8L12.7745 11.8L12.5234 12.2324ZM14.7061 15.375L15.2061 15.3751V15.3749L14.7061 15.375ZM12.5234 18.5186L12.7744 18.951L12.7745 18.951L12.5234 18.5186ZM7.60352 19.709V20.209H7.60353L7.60352 19.709ZM2.68262 18.5186L2.43157 18.951L2.4316 18.951L2.68262 18.5186ZM0.5 15.375L0 15.3749V15.3751L0.5 15.375ZM2.68262 12.2324L2.43159 11.8L2.43155 11.8L2.68262 12.2324ZM7.60352 12.042L7.60353 11.542H7.60352V12.042ZM3.18555 13.0967L2.93457 12.6642L2.93451 12.6643L3.18555 13.0967ZM1.5 15.375L1 15.3749L1 15.3751L1.5 15.375ZM3.18555 17.6533L2.93452 18.0857L2.93456 18.0858L3.18555 17.6533ZM7.60352 18.709V19.209H7.60353L7.60352 18.709ZM12.0215 17.6533L12.2725 18.0857L12.2725 18.0857L12.0215 17.6533ZM13.7061 15.375L14.2061 15.3751V15.3749L13.7061 15.375ZM12.0215 13.0967L12.2725 12.6643L12.2725 12.6643L12.0215 13.0967ZM7.60352 0.5L7.60353 0H7.60352V0.5ZM10.6279 1.77246L10.9843 1.42175L10.9843 1.42171L10.6279 1.77246ZM11.877 4.83301L12.377 4.83302V4.83297L11.877 4.83301ZM10.6279 7.89453L10.9843 8.24529L10.9843 8.24527L10.6279 7.89453ZM7.60352 9.16699V9.66699H7.60353L7.60352 9.16699ZM4.5791 7.89453L4.22277 8.24528L4.22278 8.24529L4.5791 7.89453ZM3.33008 4.83301L2.83008 4.83297V4.83302L3.33008 4.83301ZM4.5791 1.77246L4.22277 1.42171L4.22275 1.42173L4.5791 1.77246ZM7.60352 1.5L7.60354 1H7.60352V1.5ZM5.29199 2.47363L4.93568 2.12286L4.93565 2.12289L5.29199 2.47363ZM4.33008 4.83301L3.83008 4.83296V4.83303L4.33008 4.83301ZM5.29199 7.19336L4.93566 7.54411L4.93571 7.54417L5.29199 7.19336ZM7.60352 8.16699V8.66699H7.60354L7.60352 8.16699ZM9.91504 7.19336L10.2713 7.54414L10.2714 7.54411L9.91504 7.19336ZM10.877 4.83301L11.377 4.83303V4.83296L10.877 4.83301ZM9.91504 2.47363L10.2714 2.12289L10.2714 2.12288L9.91504 2.47363ZM7.60352 11.042L7.6035 11.542C9.35469 11.542 11.0341 11.946 12.2724 12.6648L12.5234 12.2324L12.7745 11.8C11.3531 10.9748 9.49189 10.542 7.60353 10.542L7.60352 11.042ZM12.5234 12.2324L12.2724 12.6648C13.5114 13.3842 14.2059 14.3593 14.2061 15.3751L14.7061 15.375L15.2061 15.3749C15.2059 13.8645 14.1797 12.6159 12.7745 11.8L12.5234 12.2324ZM14.7061 15.375L14.2061 15.3749C14.2059 16.3909 13.5113 17.3669 12.2724 18.0861L12.5234 18.5186L12.7745 18.951C14.18 18.135 15.2059 16.8854 15.2061 15.3751L14.7061 15.375ZM12.5234 18.5186L12.2724 18.0861C11.0342 18.8049 9.35456 19.2089 7.6035 19.209L7.60352 19.709L7.60353 20.209C9.49179 20.2089 11.3531 19.776 12.7744 18.951L12.5234 18.5186ZM7.60352 19.709V19.209C5.85229 19.209 4.17195 18.8049 2.93363 18.0861L2.68262 18.5186L2.4316 18.951C3.85308 19.7761 5.71516 20.209 7.60352 20.209V19.709ZM2.68262 18.5186L2.93366 18.0861C1.69485 17.3669 1.00013 16.3909 1 15.3749L0.5 15.375L0 15.3751C0.000198811 16.8853 1.02616 18.135 2.43157 18.951L2.68262 18.5186ZM0.5 15.375L1 15.3751C1.00012 14.3594 1.69479 13.3842 2.93368 12.6648L2.68262 12.2324L2.43155 11.8C1.02649 12.6158 0.000176579 13.8646 0 15.3749L0.5 15.375ZM2.68262 12.2324L2.93365 12.6648C4.17197 11.946 5.85219 11.542 7.60352 11.542V11.042V10.542C5.71508 10.542 3.8531 10.9748 2.43159 11.8L2.68262 12.2324ZM7.60352 12.042V11.542C5.85254 11.542 4.17288 11.9456 2.93457 12.6642L3.18555 13.0967L3.43653 13.5291C4.49169 12.9167 5.98964 12.542 7.60352 12.542V12.042ZM3.18555 13.0967L2.93451 12.6643C1.69522 13.3837 1.0002 14.3594 1 15.3749L1.5 15.375L2 15.3751C2.0001 14.8508 2.36767 14.1497 3.43658 13.5291L3.18555 13.0967ZM1.5 15.375L1 15.3751C1.00022 16.3906 1.69513 17.3662 2.93452 18.0857L3.18555 17.6533L3.43657 17.2209C2.36763 16.6004 2.00011 15.8992 2 15.3749L1.5 15.375ZM3.18555 17.6533L2.93456 18.0858C4.17272 18.8044 5.85227 19.209 7.60352 19.209V18.709V18.209C5.98983 18.209 4.49186 17.8334 3.43653 17.2209L3.18555 17.6533ZM7.60352 18.709L7.60353 19.209C9.35479 19.2089 11.0343 18.8045 12.2725 18.0857L12.0215 17.6533L11.7705 17.2209C10.7152 17.8335 9.21729 18.2089 7.6035 18.209L7.60352 18.709ZM12.0215 17.6533L12.2725 18.0857C13.5121 17.3661 14.2058 16.3903 14.2061 15.3751L13.7061 15.375L13.2061 15.3749C13.2059 15.8995 12.839 16.6005 11.7704 17.2209L12.0215 17.6533ZM13.7061 15.375L14.2061 15.3749C14.2059 14.3597 13.5121 13.3839 12.2725 12.6643L12.0215 13.0967L11.7704 13.5291C12.839 14.1495 13.206 14.8505 13.2061 15.3751L13.7061 15.375ZM12.0215 13.0967L12.2725 12.6643C11.0342 11.9454 9.35453 11.542 7.60353 11.542L7.60352 12.042L7.6035 12.542C9.2175 12.542 10.7154 12.9167 11.7705 13.5291L12.0215 13.0967ZM7.60352 0.5L7.6035 1C8.60406 1.00004 9.56391 1.40426 10.2716 2.12321L10.6279 1.77246L10.9843 1.42171C10.0905 0.513712 8.8747 4.51505e-05 7.60353 0L7.60352 0.5ZM10.6279 1.77246L10.2716 2.12317C10.979 2.84208 11.3769 3.81679 11.377 4.83305L11.877 4.83301L12.377 4.83297C12.3769 3.55629 11.8772 2.32911 10.9843 1.42175L10.6279 1.77246ZM11.877 4.83301L11.377 4.83299C11.3769 5.84954 10.9791 6.82492 10.2716 7.54379L10.6279 7.89453L10.9843 8.24527C11.8775 7.33774 12.3769 6.10977 12.377 4.83302L11.877 4.83301ZM10.6279 7.89453L10.2716 7.54377C9.56391 8.2627 8.60402 8.66696 7.6035 8.66699L7.60352 9.16699L7.60353 9.66699C8.87468 9.66695 10.0905 9.15324 10.9843 8.24529L10.6279 7.89453ZM7.60352 9.16699V8.66699C6.60298 8.66699 5.64316 8.26273 4.93542 7.54377L4.5791 7.89453L4.22278 8.24529C5.11656 9.15324 6.3323 9.66699 7.60352 9.66699V9.16699ZM4.5791 7.89453L4.93543 7.54378C4.22782 6.82491 3.83011 5.84961 3.83008 4.83299L3.33008 4.83301L2.83008 4.83302C2.83011 6.10981 3.32943 7.33773 4.22277 8.24528L4.5791 7.89453ZM3.33008 4.83301L3.83008 4.83305C3.83015 3.81671 4.22791 2.84209 4.93546 2.12319L4.5791 1.77246L4.22275 1.42173C3.32968 2.32912 2.83017 3.55624 2.83008 4.83297L3.33008 4.83301ZM4.5791 1.77246L4.93543 2.12321C5.64317 1.40422 6.60293 1 7.60352 1V0.5V0C6.33227 0 5.11657 0.513686 4.22277 1.42171L4.5791 1.77246ZM7.60352 1.5V1C6.60274 1 5.64321 1.40415 4.93568 2.12286L5.29199 2.47363L5.6483 2.82441C6.16972 2.29475 6.8733 2 7.60352 2V1.5ZM5.29199 2.47363L4.93565 2.12289C4.22829 2.84154 3.83018 3.81626 3.83008 4.83296L4.33008 4.83301L4.83008 4.83306C4.83015 4.07689 5.12641 3.35463 5.64833 2.82437L5.29199 2.47363ZM4.33008 4.83301L3.83008 4.83303C3.83011 5.84971 4.22811 6.8253 4.93566 7.54411L5.29199 7.19336L5.64833 6.84261C5.12642 6.3124 4.83011 5.58938 4.83008 4.83299L4.33008 4.83301ZM5.29199 7.19336L4.93571 7.54417C5.64319 8.26267 6.60281 8.66699 7.60352 8.66699V8.16699V7.66699C6.87344 7.66699 6.16971 7.37212 5.64827 6.84255L5.29199 7.19336ZM7.60352 8.16699L7.60354 8.66699C8.6042 8.66695 9.56385 8.26276 10.2713 7.54414L9.91504 7.19336L9.55874 6.84257C9.03736 7.37215 8.33364 7.66696 7.60349 7.66699L7.60352 8.16699ZM9.91504 7.19336L10.2714 7.54411C10.9789 6.8253 11.3769 5.84971 11.377 4.83303L10.877 4.83301L10.377 4.83299C10.3769 5.58938 10.0806 6.3124 9.55871 6.84261L9.91504 7.19336ZM10.877 4.83301L11.377 4.83296C11.3769 3.81627 10.9787 2.84154 10.2714 2.12289L9.91504 2.47363L9.5587 2.82437C10.0806 3.35463 10.3769 4.07689 10.377 4.83306L10.877 4.83301ZM9.91504 2.47363L10.2714 2.12288C9.56382 1.40407 8.60427 1.00005 7.60354 1L7.60352 1.5L7.60349 2C8.33377 2.00003 9.03734 2.29473 9.55871 2.82438L9.91504 2.47363Z" fill="black"/>
</svg>
