<svg width="13" height="13" viewBox="0 0 13 13" fill="none" xmlns="http://www.w3.org/2000/svg">
<path d="M5.43688 0C8.43961 0 10.8738 2.43418 10.8738 5.43688C10.8738 6.72059 10.4279 7.89954 9.68387 8.82961L12.207 11.3528L11.3528 12.207L8.82961 9.68387C7.89954 10.4279 6.72059 10.8738 5.43688 10.8738C2.43418 10.8738 0 8.43961 0 5.43688C0 2.43418 2.43418 0 5.43688 0ZM5.43688 1.2082C3.10144 1.2082 1.2082 3.10144 1.2082 5.43688C1.2082 7.77232 3.10144 9.66556 5.43688 9.66556C7.77232 9.66556 9.66556 7.77232 9.66556 5.43688C9.66556 3.10144 7.77232 1.2082 5.43688 1.2082Z" fill="black"/>
</svg>
