<svg width="15" height="15" viewBox="0 0 15 15" fill="none" xmlns="http://www.w3.org/2000/svg">
<path d="M10.5956 8.72685C10.4505 8.65431 9.50704 8.21889 9.3619 8.14629C9.21676 8.07375 9.07162 8.07375 8.92648 8.21889C8.78134 8.36403 8.49099 8.79946 8.34585 8.9446C8.27331 9.08974 8.12817 9.08974 7.98303 9.01714C7.475 8.79946 6.96698 8.50917 6.53155 8.14629C6.16867 7.7834 5.80584 7.34798 5.51556 6.91256C5.44296 6.76741 5.51556 6.62227 5.5881 6.54967C5.6607 6.47713 5.73324 6.33199 5.87838 6.25939C5.95099 6.18685 6.02353 6.04171 6.02353 5.9691C6.09613 5.89657 6.09613 5.75142 6.02353 5.67882C5.95099 5.60628 5.5881 4.73537 5.44296 4.37249C5.37042 3.86452 5.22522 3.86452 5.08007 3.86452H4.71725C4.57211 3.86452 4.35437 4.00966 4.28177 4.0822C3.84634 4.51769 3.62866 5.02565 3.62866 5.60628C3.7012 6.25939 3.91894 6.91256 4.35437 7.49312C5.15268 8.65431 6.16867 9.59776 7.4024 10.1783C7.76528 10.3235 8.05557 10.4686 8.41845 10.5412C8.78128 10.6864 9.14416 10.6864 9.57958 10.6138C10.0876 10.5412 10.523 10.1783 10.8133 9.74291C10.9585 9.45262 10.9585 9.16234 10.8859 8.872L10.5956 8.72685ZM12.4099 2.12276C9.57958 -0.707588 5.00754 -0.707588 2.17718 2.12276C-0.145141 4.44509 -0.580566 8.00115 1.01605 10.8315L0 14.5327L3.84634 13.5167C4.93493 14.0973 6.09613 14.3876 7.25726 14.3876C11.2488 14.3876 14.442 11.1944 14.442 7.20284C14.5146 5.31594 13.7163 3.50164 12.4099 2.12276ZM10.4505 12.283C9.50704 12.8635 8.41845 13.2264 7.25726 13.2264C6.16867 13.2264 5.15268 12.9361 4.20923 12.4281L3.99148 12.2829L1.74176 12.8635L2.32233 10.6864L2.17718 10.4686C0.435425 7.56572 1.30634 3.93706 4.13669 2.12276C6.96698 0.308464 10.5956 1.25191 12.3374 4.00966C14.0791 6.83995 13.2808 10.5413 10.4505 12.283Z" fill="black"/>
</svg>
